<?xml version="1.0" encoding="utf-8"?>
<!-- Generator: Adobe Illustrator 27.4.1, SVG Export Plug-In . SVG Version: 6.00 Build 0)  -->
<svg version="1.1" id="Layer_1" xmlns="http://www.w3.org/2000/svg" xmlns:xlink="http://www.w3.org/1999/xlink" x="0px" y="0px"
	 viewBox="0 0 180 180" style="enable-background:new 0 0 180 180;" xml:space="preserve">
<style type="text/css">
	.st0{fill:url(#SVGID_1_);}
</style>
<g>
	<g>
		<linearGradient id="SVGID_1_" gradientUnits="userSpaceOnUse" x1="6.5991" y1="89.9694" x2="173.4014" y2="89.9694">
			<stop  offset="0" style="stop-color:#B36CFF"/>
			<stop  offset="1" style="stop-color:#8800FF"/>
		</linearGradient>
		<path class="st0" d="M137.6,115.3c-4.3,0-7.2-1.8-9.1-3.7c-5.5-5.5-5.4-14.1-5.3-21.7c0-1.7,0.1-4,0-6
			c-6.8,2.7-18.7,9.1-26.4,13.3c-27.2,14.6-37.4,19.4-45,16c-10-4.5-10-15.9-10-24.3c0-1.1,0-2.6,0-4c-1.1,0.7-2.2,1.5-3.2,2.2
			c-8.1,5.5-19.3,13.1-31.9,13.1V82.4c7.2,0,15.3-5.5,21.9-10c7.8-5.3,17.6-11.9,25.4-4.4c5.6,5.4,5.6,13.7,5.6,21
			c0,1.9,0,4.8,0.2,6.8c6.6-2.4,20-9.6,28.6-14.2c27.1-14.6,39.5-21.2,47.2-13.5c5.7,5.7,5.6,14.4,5.4,22.1c0,1.7-0.1,4,0,5.9
			c2.4-1.2,5.4-2.9,7.7-4.2c8.2-4.7,16.6-9.6,24.7-9.6v17.8c-3.4,0-10.9,4.3-15.8,7.2c-4.3,2.5-8.4,4.8-12.2,6.3
			C142.4,114.8,139.8,115.3,137.6,115.3z M122.6,80.3C122.6,80.3,122.6,80.3,122.6,80.3S122.6,80.3,122.6,80.3z M41.1,80.2
			L41.1,80.2L41.1,80.2z"/>
	</g>
</g>
</svg>
