<?xml version="1.0" encoding="iso-8859-1"?>
<!-- Uploaded to: SVG Repo, www.svgrepo.com, Generator: SVG Repo Mixer Tools -->
<svg fill="#000000" version="1.1" id="Layer_1" xmlns="http://www.w3.org/2000/svg" xmlns:xlink="http://www.w3.org/1999/xlink" 
	 viewBox="0 0 512 512" xml:space="preserve">
<g>
	<g>
		<path d="M374.568,274.863c-1.116,0-2.219,0.049-3.318,0.12c-3.837-24.462-25.055-43.235-50.577-43.235H83.537
			c-25.522,0-46.74,18.774-50.577,43.235c-1.098-0.071-2.202-0.12-3.318-0.12H0v167.074h16.168v32.337h48.505v-32.337h16.168
			v-10.779h242.526v10.779h15.091v32.337h48.505v-32.337h17.246V274.863H374.568z M48.505,458.105H32.337v-16.168h16.168V458.105z
			 M64.674,371.874v53.895H16.168V291.032h13.474c19.317,0,35.032,15.716,35.032,35.032V371.874z M323.368,414.989H80.842v-26.947
			h42.463h28.255h101.092h28.255h42.461V414.989z M105.749,347.621l31.684-31.684l31.684,31.684l-24.254,24.253h-14.861
			L105.749,347.621z M235.096,347.621l31.684-31.684l31.684,31.684l-24.254,24.253h-14.861L235.096,347.621z M323.368,326.063v45.81
			h-26.294l24.253-24.253l-54.548-54.548l-54.548,54.548l24.253,24.253h-68.756l24.253-24.253l-54.549-54.548l-54.548,54.548
			l24.253,24.253H80.842v-45.81c0-21.464-13.283-39.875-32.057-47.473c2.154-17.267,16.911-30.675,34.751-30.675h237.137
			c17.84,0,32.598,13.408,34.751,30.675C336.651,286.189,323.368,304.599,323.368,326.063z M370.796,458.105h-16.168v-16.168h16.168
			V458.105z M388.042,425.768h-1.078h-47.427v-53.895v-45.81c0-19.316,15.715-35.032,35.032-35.032h13.474V425.768z"/>
	</g>
</g>
<g>
	<g>
		<path d="M366.484,134.737v102.4h64.674v189.761c-12.426,3.529-21.558,14.971-21.558,28.512v18.863h59.284v-18.863
			c0-13.542-9.132-24.983-21.558-28.512V237.137h26.947v45.811h16.168v-45.811H512v-102.4H366.484z M452.716,455.411v2.695h-26.947
			v-2.695c0-7.43,6.044-13.474,13.474-13.474S452.716,447.981,452.716,455.411z M495.832,220.968H382.653v-70.063h113.179V220.968z"
			/>
	</g>
</g>
<g>
	<g>
		<path d="M253.305,37.726h-16.168H80.842H64.674H0V204.8h64.674h16.168h156.295h16.168h64.674V37.726H253.305z M64.674,188.632
			H16.168v-14.013h48.505V188.632z M64.674,158.451H16.168v-14.013h48.505V158.451z M64.674,128.269H16.168v-14.013h48.505V128.269z
			 M64.674,98.088H16.168V84.076h48.505V98.088z M64.674,67.907H16.168V53.895h48.505V67.907z M150.905,188.632H80.842v-59.284
			h70.063V188.632z M150.905,113.179H80.842V53.895h70.063V113.179z M237.137,188.632h-70.063v-59.284h70.063V188.632z
			 M237.137,113.179h-70.063V53.895h70.063V113.179z M301.811,188.632h-48.505v-14.013h48.505V188.632z M301.811,158.451h-48.505
			v-14.013h48.505V158.451z M301.811,128.269h-48.505v-14.013h48.505V128.269z M301.811,98.088h-48.505V84.076h48.505V98.088z
			 M301.811,67.907h-48.505V53.895h48.505V67.907z"/>
	</g>
</g>
<g>
	<g>
		<rect x="460.8" y="80.842" width="16.168" height="16.168"/>
	</g>
</g>
<g>
	<g>
		<rect x="428.463" y="80.842" width="16.168" height="16.168"/>
	</g>
</g>
<g>
	<g>
		<rect x="396.126" y="80.842" width="16.168" height="16.168"/>
	</g>
</g>
</svg>